# xmcd
#
# Track frame offsets:
#  150
#  17392
#  34697
#  50188
#  60252
#  71370
#  85581
#  99312
#  109918
#  124233
#  136469
#  149609
#  163027
#  173461
#  184469
#  196171
#  213413
#  230718
#  246209
#  256273
#  267391
#  281602
#  295333
#  305939
#  320254
#  332490
#  345630
#
# Disc length: 4785 seconds
#
# Revision: 0
# Processed by: cddbd v1.5.2PL0 Copyright (c) Steve Scherf et al.
# Submitted via: Collectorz.com_Music_Collector 6.11
#
DISCID=9512af1b
DTITLE=Sammy Davis Jr. - Greatest Hits
DYEAR=1900
DGENRE=Blues
TTITLE0=Lush Life
TTITLE1=A Stranger in Town
TTITLE2=What Kind of Fool Am I?
TTITLE3=Once in a Lifetime
TTITLE4=Someone Nice Like You
TTITLE5=As Long as She Needs Me
TTITLE6=Who Can I Turn To? (When Nobod
TTITLE7=Here's That Rainy Day
TTITLE8=I Want to Be With You
TTITLE9=Night Song
TTITLE10=The Shelter of Your Arms
TTITLE11=I've Gotta Be Me
TTITLE12=Yes I Can
TTITLE13=Gonna Build a Mountain
TTITLE14=If I Ruled the World
TTITLE15=Lush Life
TTITLE16=A Stranger in Town
TTITLE17=What Kind of Fool Am I?
TTITLE18=Once in a Lifetime
TTITLE19=Someone Nice Like You
TTITLE20=As Long as She Needs Me
TTITLE21=Who Can I Turn To? (When Nobod
TTITLE22=Here's That Rainy Day
TTITLE23=I Want to Be With You
TTITLE24=Night Song
TTITLE25=The Shelter of Your Arms
TTITLE26=I've Gotta Be Me
EXTD=
EXTT0=
EXTT1=
EXTT2=
EXTT3=
EXTT4=
EXTT5=
EXTT6=
EXTT7=
EXTT8=
EXTT9=
EXTT10=
EXTT11=
EXTT12=
EXTT13=
EXTT14=
EXTT15=
EXTT16=
EXTT17=
EXTT18=
EXTT19=
EXTT20=
EXTT21=
EXTT22=
EXTT23=
EXTT24=
EXTT25=
EXTT26=
PLAYORDER=
